<?xml version="1.0" encoding="utf-8"?>
<!-- Generator: Adobe Illustrator 27.3.1, SVG Export Plug-In . SVG Version: 6.00 Build 0)  -->
<svg version="1.1" xmlns="http://www.w3.org/2000/svg" xmlns:xlink="http://www.w3.org/1999/xlink" x="0px" y="0px"
	 viewBox="0 0 595.28 841.89" style="enable-background:new 0 0 595.28 841.89;" xml:space="preserve">
<style type="text/css">
	.st0{fill:#E8E8E8;stroke:#000000;stroke-miterlimit:10;}
	.st1{fill:#E50000;}
</style>
<g id="레이어_2">
	<path class="st0" d="M31.21,134.42v263.73v62.07c60.02,178.14,270.07,235.3,270.07,235.3s210.06-57.16,270.07-235.3v-62.07v-82.87
		v-55.52V134.42H31.21z"/>
	<g>
		<g>
			<path class="st1" d="M31.21,134.42v325.8c60.02,178.14,270.07,235.3,270.07,235.3s210.06-57.16,270.07-235.3V315.29
				c0,0-2.65-1.87-4.98,2.33c-7.43,13.37-0.47,23.33-7.46,35.92s-2.33,60.65-4.67,67.7c-2.33,7.05-1.87,31.21-1.87,31.21
				c-3.27,28.92-11.73,28.07-34.99,68.58c-27.06,47.12-57.38,53.65-80.24,85.84c-19.13,26.94-57.38,44.32-72.78,48.98
				c-15.4,4.67-38.25,3.73-49.45,2.8c-11.2-0.93-36.85,2.8-47.58-4.67c-10.73-7.46-29.39-12.6-48.05-46.65
				c-18.66-34.06-21.46-31.72-37.79-44.79c-16.33-13.06-72.78-32.19-79.77-76.04c-7-43.85-14.93-40.59-31.19-65.26
				c-16.26-24.67-17.33-50.9-17.33-50.9c-1.87-12.13-1.4-26.12-1.4-26.12c0.93-15.86-1.4-32.19-3.73-37.79
				c-2.33-5.6,2.33-15.4,2.33-20.53c0-5.13-0.47-16.79,1.87-34.52c2.33-17.73,25.19-28.46,9.33-48.98
				c-13.19-17.06-2.8-33.59,0-37.32c2.8-3.73,14.93-6.53,15.54,2.8c0.61,9.33,4.05,9.33,5.92,13.53c1.87,4.2-0.67,9.23-0.67,9.23
				c-3.93,15.24,11.98,14.29,15.79,24.77c3.81,10.48,5,12.38-4.53,18.1s-2.94,10.17-1.81,13.34c0.65,1.82-0.45,4.07,6.55,4.07
				s5.16-6.28,5.6-8.86c1.32-7.82,3.73-7.46,10.73-18.19c7-10.73-10.2-14.46-12.06-24.73c-1.87-10.26,5.13-10.26,8.86-16.33
				c3.73-6.06-5.13-11.66,14.93-21.23c10.09-4.81,34.52,3.03,41.05,2.1c6.53-0.93,28.92-15.86,38.72-12.13
				c9.8,3.73,15.86,7.46,26.59,3.73c10.73-3.73,25.25-2.09,34.52-2.8c24.3-1.86,31.72,4.67,48.52,4.67c16.79,0,28.92-6.53,45.72-9.8
				c16.79-3.27,38.25,5.13,53.18,10.26c14.93,5.13,31.26,0.47,51.78-3.27s32.19-1.87,55.05-2.8c22.86-0.93,27.52-2.33,30.32,6.06
				s-2.33,17.26-2.33,27.99c0,10.73,5.6,16.79,6.06,26.59c0.47,9.8-3.73,18.66-2.33,26.12c1.4,7.46,5.6,11.2,8.4,17.26
				c2.8,6.06,9.65,4.2,9.65,4.2V134.42H31.21z"/>
		</g>
	</g>
	<path d="M181.82,428.63l11.14,6.03l-0.53-119.89c-3.9-0.6-7.61-1.21-11.12-1.83L181.82,428.63z"/>
	<path d="M139.1,396.04l9.4,5l-0.42-95.61c-3.62-1.04-6.74-2.04-9.39-2.95L139.1,396.04z"/>
	<path class="st1" d="M436.52,240.6l-22.54-23.22c0,0-90.84,81.96-267.06,25.27l-13.33,36.88c0,0,62.59,20.9,137.59,19.07
		l18.67,239.18h24.95l-2.87-242.54C355.25,288.98,399.67,273.28,436.52,240.6z"/>
	<path class="st1" d="M547.02,304.98c-4.21-2.62-7.72,2.81-7.72,2.81s-58.99,88.48-162.92,151.68
		c-12.64,7.02-14.04-11.94-14.04-11.94l-7.1-133.43c-8.91,2.29-14.75,3.22-16.33,3.46l8.68,295.97l21.77-7.02l-3.92-124.27
		c0,0,56.58,1.81,181.58-162.51C547.02,319.72,554.75,308.49,547.02,304.98z"/>
	<path class="st1" d="M414.77,406.25l-2.24-54.59c0,0-2.8-5.39,10.84-30.06c20.37-35.32,21.57-8.6,21.57-8.6
		c3.83,8.22,7.39-3.17,7.39-3.17c2.8-9.53,2.8-30.83-10.1-27.47c-12.9,3.36-33.63,42.6-33.63,42.6v-29.3
		c-4.57,2.17-9.01,4.14-13.28,5.92l5.12,113.4L414.77,406.25z"/>
	<path class="st1" d="M512.31,325c0,0-12.33,17.01-7.85-10.64c4.48-27.66-2.8-86.14-20.18-68.77
		c-17.38,17.38-16.82,43.73-16.82,43.73s2.17,2.28,5.01-1.27c7.57-9.7,6.62-21.76,13.01-23.65c6.39-1.89,4.97,22.23,4.97,22.23
		s-9.7-1.89-18.92,16.56c-14.66,30.04-6.39,50.38,5.44,50.14s19.16-17.27,19.16-17.27c11.35,4.73,16.74-5.89,16.74-5.89
		C517.36,324.05,512.31,325,512.31,325z M491.47,322.74c0,0-6.41,17.22-12.82,11.62s2.8-31.64,12.82-32.44V322.74z"/>
	<path class="st1" d="M544.59,215.3c-0.19-1.12-3.22-6.44-6.41-7.86c-10.41-4.65-25.39,11.23-23.46,63.4
		c2.73,73.6,30.53,27.87,31.03,20.9v-20.32c0,0-2.5-6.97-5,1.16c-2.5,8.13-6.18,27.29-10.59,8.13c-4.41-19.16,0.56-48.21,3.59-52.84
		c2.31-3.53,4.99-4.65,6.25,1.16c0,0,1.55,2.67,2.75-1.31C542.75,227.72,544.8,216.53,544.59,215.3z"/>
	<path d="M433.86,593.96c0.58-0.35,2.79-4.02,2.77-7.24c-0.06-10.53-12.91-22.5-41.59-12.45c-36.57,12.81-7.81,33.05-3.77,32.46
		l11.4-3.1c0,0,3.27-3.42-1.93-4.54c-5.2-1.12-16.9-1.66-7.28-8.75c9.62-7.09,27.2-6.83,30.57-4.68c2.57,1.64,3.89,4,0.95,6.07
		c0,0-1.1,1.87,1.44,2.4C426.42,594.12,433.23,594.34,433.86,593.96z"/>
	<path d="M372.77,500.22v12.17c0,0,17.02,3.15,37.8-12.17c0,0,15.93,3.85,7.15,12.44c-4.51,4.31,0.47,5.73,0.47,5.73h9.02
		c0,0,2.71-0.47,3.73-2.85c1.02-2.37,10.04-14.95-8.71-23.26c0,0,6.41-6.65,7.36-10.44s-1.9-3.8-1.9-3.8l-9.49-4.27
		C418.19,473.77,412,491.1,372.77,500.22z"/>
	<path d="M433.27,541.3c-2.08-9.57-16.72-14.5-32.69-11.02c-15.97,3.48-27.23,14.05-25.14,23.62c2.08,9.57,16.72,14.5,32.69,11.02
		C424.09,561.43,435.35,550.86,433.27,541.3z M405.93,554.85c-9.67,2.11-18.25,0.38-19.17-3.85s6.17-9.37,15.83-11.47
		s18.25-0.38,19.17,3.85C422.69,547.61,415.6,552.75,405.93,554.85z"/>
	<path class="st1" d="M115.34,295.29c-2.8-41.78-32.17-40.34-32.17-40.34c0,8.79,0.37,17.89,9.83,28.55
		C99.13,290.41,106.91,296.66,115.34,295.29z"/>
	<path d="M246.22,320.54c-4.71-0.33-9.26-0.68-13.65-1.06c6.42,34.06,6.59,130.7,2.99,139.82c-3.87,9.81-12.27,30.09-44.34,13.91
		c-32.07-16.18-71.35-39.51-78.14-99.55c-6.8-60.04,2.26-78.36,2.26-78.36c-8.43,1.38-16.21-4.88-22.34-11.79
		c-9.46-10.66-9.83-19.76-9.83-28.55c0,0-4.05,117.55,28.18,171.6c61.36,85.92,141.99,67.93,141.99,67.93
		C255.6,395.83,248.69,337.79,246.22,320.54z"/>
</g>
<g id="레이어_3">
</g>
</svg>
